<svg width="40.000000" height="40.000000" viewBox="0 0 40 40" fill="none" xmlns="http://www.w3.org/2000/svg" xmlns:xlink="http://www.w3.org/1999/xlink">
	<desc>
			Created with Pixso.
	</desc>
	<defs>
		<clipPath id="clip5_105">
			<rect id="icon" rx="-0.500000" width="39.000000" height="39.000000" transform="translate(0.500000 0.500000)" fill="white" fill-opacity="0"/>
		</clipPath>
	</defs>
	<rect id="icon" rx="-0.500000" width="39.000000" height="39.000000" transform="translate(0.500000 0.500000)" fill="#FFFFFF" fill-opacity="0"/>
	<g clip-path="url(#clip5_105)">
		<path id="Vector" d="M35 13.33C35.88 13.33 36.73 13.68 37.35 14.3C37.98 14.93 38.33 15.78 38.33 16.66L38.33 23.33C38.33 24.21 37.98 25.06 37.35 25.69C36.73 26.31 35.88 26.66 35 26.66L33.23 26.66C32.82 29.88 31.25 32.85 28.81 35C26.38 37.14 23.24 38.33 20 38.33L20 35C22.65 35 25.19 33.94 27.07 32.07C28.94 30.19 30 27.65 30 25L30 15C30 12.34 28.94 9.8 27.07 7.92C25.19 6.05 22.65 5 20 5C17.34 5 14.8 6.05 12.92 7.92C11.05 9.8 10 12.34 10 15L10 26.66L5 26.66C4.11 26.66 3.26 26.31 2.64 25.69C2.01 25.06 1.66 24.21 1.66 23.33L1.66 16.66C1.66 15.78 2.01 14.93 2.64 14.3C3.26 13.68 4.11 13.33 5 13.33L6.77 13.33C7.17 10.11 8.74 7.14 11.18 5C13.61 2.85 16.75 1.66 20 1.66C23.24 1.66 26.38 2.85 28.81 5C31.25 7.14 32.82 10.11 33.23 13.33L35 13.33ZM12.93 26.3L14.7 23.48C16.28 24.47 18.12 25 20 25C21.87 25 23.71 24.47 25.29 23.48L27.06 26.3C24.94 27.63 22.49 28.33 20 28.33C17.5 28.33 15.05 27.63 12.93 26.3Z" fill="#F9995D" fill-opacity="1.000000" fill-rule="nonzero"/>
	</g>
</svg>
